<svg width="66" height="48" viewBox="0 0 66 48" fill="none" xmlns="http://www.w3.org/2000/svg">
<g filter="url(#filter0_d_1_148)">
<path fill-rule="evenodd" clip-rule="evenodd" d="M55.9 11.896C56.232 10.804 55.9 10 54.31 10H49.06C47.724 10 47.108 10.694 46.774 11.46C46.774 11.46 44.104 17.852 40.322 22.004C39.098 23.208 38.542 23.59 37.874 23.59C37.54 23.59 37.038 23.208 37.038 22.114V11.896C37.038 10.584 36.67 10 35.558 10H27.302C26.468 10 25.966 10.608 25.966 11.186C25.966 12.428 27.858 12.716 28.052 16.212V23.808C28.052 25.474 27.746 25.776 27.078 25.776C25.298 25.776 20.968 19.354 18.398 12.006C17.9 10.576 17.396 10 16.054 10H10.8C9.3 10 9 10.694 9 11.46C9 12.824 10.78 19.6 17.29 28.562C21.63 34.682 27.74 38 33.306 38C36.644 38 37.056 37.264 37.056 35.994V31.368C37.056 29.894 37.372 29.6 38.43 29.6C39.21 29.6 40.544 29.984 43.66 32.934C47.22 36.432 47.806 38 49.81 38H55.06C56.56 38 57.312 37.264 56.88 35.808C56.404 34.36 54.704 32.258 52.45 29.764C51.226 28.344 49.39 26.814 48.832 26.048C48.054 25.066 48.276 24.628 48.832 23.754C48.832 23.754 55.232 14.902 55.898 11.896" fill="#EDFFFF"/>
</g>
<defs>
<filter id="filter0_d_1_148" x="0.3" y="1.3" width="65.401" height="45.4" filterUnits="userSpaceOnUse" color-interpolation-filters="sRGB">
<feFlood flood-opacity="0" result="BackgroundImageFix"/>
<feColorMatrix in="SourceAlpha" type="matrix" values="0 0 0 0 0 0 0 0 0 0 0 0 0 0 0 0 0 0 127 0" result="hardAlpha"/>
<feOffset/>
<feGaussianBlur stdDeviation="4.35"/>
<feComposite in2="hardAlpha" operator="out"/>
<feColorMatrix type="matrix" values="0 0 0 0 0.0470588 0 0 0 0 0.192157 0 0 0 0 0.592157 0 0 0 1 0"/>
<feBlend mode="normal" in2="BackgroundImageFix" result="effect1_dropShadow_1_148"/>
<feBlend mode="normal" in="SourceGraphic" in2="effect1_dropShadow_1_148" result="shape"/>
</filter>
</defs>
</svg>
